<?xml version="1.0" standalone="no"?><!DOCTYPE svg PUBLIC "-//W3C//DTD SVG 1.1//EN" "http://www.w3.org/Graphics/SVG/1.1/DTD/svg11.dtd"><svg t="1602555717665" class="icon" viewBox="0 0 1024 1024" version="1.1" xmlns="http://www.w3.org/2000/svg" p-id="4233" xmlns:xlink="http://www.w3.org/1999/xlink" width="200" height="200"><defs><style type="text/css"></style></defs><path d="M482.761 89.134h-53.622v80.438c-195.728 21.451-348.558 189.027-348.558 388.774 0 214.498 174.275 388.774 388.774 388.774 158.191 0 294.934-95.181 355.26-230.585l60.33 16.086c29.492-48.26 53.622-116.631 53.622-199.749 0-245.329-214.497-443.741-455.804-443.741v0zM469.354 893.498c-185.002 0-335.151-150.146-335.151-335.151 0-168.916 131.381-311.022 294.934-335.151v360.624l340.514 119.311c-45.585 113.949-175.622 190.367-300.299 190.367v0zM846.065 668.277l-363.301-123.338v-402.182c209.134-1.339 399.501 179.641 399.501 390.117-0.001 56.306-14.749 97.865-36.198 135.402v0zM846.065 668.277z" p-id="4234"></path></svg>