<?xml version="1.0" standalone="no"?><!DOCTYPE svg PUBLIC "-//W3C//DTD SVG 1.1//EN" "http://www.w3.org/Graphics/SVG/1.1/DTD/svg11.dtd"><svg t="1626195212369" class="icon" viewBox="0 0 1024 1024" version="1.1" xmlns="http://www.w3.org/2000/svg" p-id="9518" xmlns:xlink="http://www.w3.org/1999/xlink" width="200" height="200"><defs><style type="text/css"></style></defs><path d="M640.175 298.985l277.337 1.161c23.564 0.099 42.586 19.281 42.488 42.845-0.098 23.328-18.9 42.206-42.14 42.485l-0.705 0.003-255.822-1.071v596.535c0 23.328-18.722 42.284-41.96 42.666h-0.706c-23.329 0-42.285-18.722-42.661-41.96l-0.006-0.706V362.904c0-35.065 28.183-63.493 63.114-63.919h1.06z m-235.028 0.536c34.97 0 63.401 28.053 64.006 62.887l0.01 1.058 0.17 149.554c0.031 27.264-16.715 55.506-40.614 68.67l-0.727 0.395-158.357 84.69L428.77 775.478c19.263 13.158 24.355 39.31 11.559 58.711l-0.393 0.586c-13.159 19.264-39.31 24.356-58.712 11.56l-0.586-0.394-199.609-136.348c-35.817-24.466-33.533-73.303 4.001-94.325l1.149-0.628 197.816-105.794-0.142-123.991H106.667c-23.329 0-42.285-18.722-42.661-41.96l-0.006-0.707c0-23.328 18.722-42.284 41.961-42.66l0.706-0.006h298.48zM512 0c82.475 0 149.333 66.859 149.333 149.333 0 82.475-66.858 149.334-149.333 149.334s-149.333-66.86-149.333-149.334S429.525 0 512 0z m0 85.333c-35.346 0-64 28.654-64 64 0 35.347 28.654 64 64 64 35.346 0 64-28.653 64-64 0-35.346-28.654-64-64-64z" p-id="9519" fill="#ffffff"></path></svg>