<?xml version="1.0" standalone="no"?><!DOCTYPE svg PUBLIC "-//W3C//DTD SVG 1.1//EN" "http://www.w3.org/Graphics/SVG/1.1/DTD/svg11.dtd"><svg t="1626437503171" class="icon" viewBox="0 0 1024 1024" version="1.1" xmlns="http://www.w3.org/2000/svg" p-id="2821" xmlns:xlink="http://www.w3.org/1999/xlink" width="250" height="250"><defs><style type="text/css"></style></defs><path d="M977.69726135 511.73815115c0-0.39277188 0-0.78554515 0-1.30924146l0-183.29383405c0-13.22334045-13.35426487-22.78080534-31.81457256-22.78080536l-103.03731903-0.26184884c10.21208563-13.09241602 17.93661137-28.80331636 21.20971506-48.04916921 7.33175386-44.12144482-3.5349525-88.5047371-28.93424081-118.61729492-21.86433578-25.92298459-52.5005913-39.53909831-88.24288823-39.53909832-41.5029605 0-80.12559062 20.03139801-108.928907 56.29739127-14.00888561 17.80568695-25.26836385 39.01540199-32.9928896 61.5343585-12.83056857-6.15343543-29.45793709-10.21208563-50.27488025-12.17594783-4.71326955-0.39277188-9.42654048-0.65462073-13.87796118-0.65462073-21.73341135 0-41.11018862 5.10604282-56.69016454 14.92535519-3.01125619-6.41528428-7.06990501-14.00888561-12.56871972-23.04265281-31.81457257-53.67890834-70.96089898-91.5159933-104.87025816-101.20438125-24.74466755-7.06990501-45.43068627-7.46267692-63.36729629-1.047394-15.44905149 5.4988147-28.14869563 15.84182476-38.62262873 31.55272372-15.84182476 23.82819796-18.46030769 66.37855248-18.85307957 76.32878927-0.13092442 0.78554515-0.26184885 1.70201474-0.26184885 2.4875585 0 6.41528428 4.45142208 12.04502341 10.60485751 14.13981003 0.78554515 7.33175386 7.46267692 13.09241602 15.57997593 13.09241602 8.64099533 0 15.71090034-6.5462087 15.71090034-14.53258192 0-0.39277188 0-0.65462073 0-1.04739399 0.52369631-15.9727478 4.45142208-44.90698859 12.83056855-57.4757097 9.68838794-14.53258192 24.74466755-27.75592375 63.62914512-16.75829295 18.46030769 5.23696723 51.06042541 30.24348225 82.48222472 83.26776986 5.89158797 9.95023679 9.42654048 17.02014179 11.65225152 21.86433578-3.01125619 6.02251101-5.10604282 12.4377953-6.02251101 18.984004-2.09478662 15.84182476-1.30924147 28.80331636 2.22571103 39.27724946l-0.13092442 0.13092441c-0.26184885 0-0.52369631 0-0.91646957 0-9.29561605 0.39277188-28.27962006 1.30924147-45.95438259 0-0.26184885-0.26184885-0.52369631-0.39277188-0.91646957-0.39277188l-3.27310367 0c-8.90284278-0.78554515-17.15106623-2.22571105-23.56635051-4.58234649-23.04265281-8.51007091-59.9632682-25.13743943-89.68305414-38.62262874-19.5077003-8.77191974-34.95675318-15.71090034-42.94312639-18.8530796-30.50533108-11.78317456-66.90224879-23.82819796-113.90402537-16.49644547-83.13684544 12.96149298-86.80272236 68.47333909-86.9336468 70.82997456l0 0c0 0.13092442 0 0.39277188 0 0.5236963 0 8.24822206 7.20082943 14.92535519 16.10367222 14.92535518 0.13092442 0 0.13092442 0 0.26184885 0 1.83293778 0 3.66587693 0.91646958 4.84419398 2.35663547 2.74940736 3.66587693 7.46267692 6.02251101 12.56871971 6.02251102 8.24822206 0 14.92535519-5.89158797 15.4490515-13.35426487l0.13092441 0c0-0.26184885 3.01125619-30.37440667 57.34478528-38.88447758 37.44431169-5.89158797 66.64040133 3.79680135 93.34893106 14.13981003 6.93898059 2.74940736 22.12618462 9.55746352 39.67002273 17.54383811 2.48755851 1.04739399 4.97511839 2.22571105 7.46267691 3.40402809L133.62915733 304.35427167c-18.46030769 0-31.81457257 9.55746352-31.81457256 22.78080535l0 172.95082399 0 34.04028361 69.65165613 0 0 372.34833028c0 16.36552107 12.83056857 29.71978594 28.67239194 29.71978593L881.20615104 936.19430083c15.84182476 0 28.67239195-13.35426487 28.67239195-29.71978593L909.87854299 533.9952602l67.94964278 0L977.69726135 511.73815115zM637.29442804 220.95557739c19.24585284-42.41943008 54.72630234-75.15047221 100.28791168-75.15047223 25.00651639 0 46.08530702 9.29561605 61.14158662 26.97037858 18.72215653 21.9952602 26.44668228 55.24999865 20.94786619 88.76658456-3.01125619 17.67476253-11.52132709 31.15995184-23.69727355 42.4194301l-159.72748355-0.26184884c0 0 0 0 0 0 4.05864881-10.86670637 4.97511839-24.61374313 2.88033178-42.28850568-1.04739399-8.24822206-3.5349525-15.71090034-7.46267691-22.38803207C633.23577924 232.86967636 635.19964144 226.84716398 637.29442804 220.95557739zM523.78317456 888.79975236L215.84953457 888.79975236l0-354.80449216L523.78317456 533.9952602 523.78317456 888.79975236zM523.78317456 500.08590101L150.51837472 500.08590101 150.51837472 344.0242944l242.9952534-0.26184885c0.26184885 0 0.39277188 0 0.52369631-0.13092442l16.62736853 0c0.13092442 0 0.26184885 0 0.52369631-0.13092443 6.80805616 0.39277188 13.61611372 0.65462073 20.03139799 0.65462073 3.79680135 0 7.46267692 0 10.86670637-0.13092442L523.78317456 344.0242944 523.78317456 500.08590101zM531.76954915 303.0450302c-3.92772438 0.13092442-7.72452575 0.26184885-11.39040268 0.3927719l-12.0450234 0c-11.39040268-0.39277188-17.93661137-2.22571105-21.07879062-5.76066355-1.17831705-1.4401659-2.22571105-3.40402809-2.88033178-5.89158799-0.13092442-3.79680135 0.26184885-8.24822206 0.78554515-13.09241602 2.09478662-15.9727478 21.47156389-32.07642141 54.33352908-32.0764214 3.40402809 0 6.93898059 0.13092442 10.34300868 0.52369631 50.40580468 4.84419396 52.36966688 21.20971504 53.15521203 28.27962004 1.17831705 9.55746352 1.04739399 16.23459665 0.26184885 20.81694316-6.15343543 6.41528428-25.92298459 6.41528428-45.16883744 6.41528428l-5.23696724 0C545.77843476 302.52133251 538.70852976 302.78318135 531.76954915 303.0450302zM863.13861524 888.79975236L556.64514113 888.79975236l0-354.80449216 306.49347411 0L863.13861524 888.79975236zM926.89868479 500.08590101L556.64514113 500.08590101 556.64514113 344.0242944l370.25354366 0L926.89868479 500.08590101z" p-id="2822" fill="#ffffff"></path></svg>