<?xml version="1.0" standalone="no"?><!DOCTYPE svg PUBLIC "-//W3C//DTD SVG 1.1//EN" "http://www.w3.org/Graphics/SVG/1.1/DTD/svg11.dtd"><svg t="1626195915328" class="icon" viewBox="0 0 1024 1024" version="1.1" xmlns="http://www.w3.org/2000/svg" p-id="25768" width="250" height="250" xmlns:xlink="http://www.w3.org/1999/xlink"><defs><style type="text/css"></style></defs><path d="M880 184h-168v-64A8 8 0 0 0 704 112h-56a8 8 0 0 0-8 8v64h-256v-64a8 8 0 0 0-8-8H320a8 8 0 0 0-8 8v64H144c-17.696 0-32 14.304-32 32V880c0 17.696 14.304 32 32 32h736c17.696 0 32-14.304 32-32V216c0-17.696-14.304-32-32-32z m-40 656H184V460h656V840z m-656-448V256h128v48c0 4.384 3.616 8 8 8h56A8 8 0 0 0 384 304V256h256v48c0 4.384 3.616 8 8 8H704a8 8 0 0 0 8-8V256h128v136H184z" p-id="25769" fill="#ffffff"></path></svg>