<?xml version="1.0" standalone="no"?><!DOCTYPE svg PUBLIC "-//W3C//DTD SVG 1.1//EN" "http://www.w3.org/Graphics/SVG/1.1/DTD/svg11.dtd"><svg t="1626195012739" class="icon" viewBox="0 0 1024 1024" version="1.1" xmlns="http://www.w3.org/2000/svg" p-id="2417" xmlns:xlink="http://www.w3.org/1999/xlink" width="200" height="200"><defs><style type="text/css"></style></defs><path d="M840.0896 187.3408l1.6896 10.0864 11.8784 83.968a192 192 0 0 1 166.4 200.3968l-16.0768 306.7904a192 192 0 0 1-201.8304 181.7088L342.016 946.176a192 192 0 0 1-181.0944-173.2096C103.4752 752.64 62.6176 700.3648 49.664 629.76l-1.6896-10.6496-42.752-304.1792a192 192 0 0 1 153.344-215.1936l10.0864-1.6896L624.9472 33.9968a192 192 0 0 1 215.1424 153.344zM512 614.4c-5.6832 0-15.5136 4.5568-29.2864 13.4656l-11.008 7.5776-12.4928 9.1648-13.824 10.8032-15.2576 12.4416-16.5888 14.0288-17.92 15.6672-29.3376 26.4192-32.2048 29.952-22.9376 21.9136-36.7104 35.7376-13.4656 13.312c19.8144 25.6 50.176 42.752 85.0432 44.544l460.1856 24.1664a115.2 115.2 0 0 0 103.424-53.504l-1.536-1.8432-18.432-20.992-17.4592-18.9952-16.384-17.0496-15.2576-15.0528-14.08-13.056C799.4368 728.9856 779.52 716.8 768 716.8c-13.9264 0-21.1968 1.4848-32.4096 6.6048l-7.3216 3.4816c-22.4768 11.264-36.7104 15.5136-62.6688 15.5136-27.3408 0-44.9024-11.9296-75.264-47.4112l-13.8752-16.6912-19.6096-24.1664-10.2912-12.0832a314.368 314.368 0 0 0-8.8576-9.728l-7.5264-7.3728C522.0864 617.472 516.4032 614.4 512 614.4zM374.1696 332.5952a115.2 115.2 0 0 0-121.088 109.056l-16.0768 306.7392c-0.512 9.1136 0.1024 17.9712 1.6896 26.5728l14.7968-14.6432 25.7024-24.9856 24.3712-23.2448 23.04-21.504 32.1024-29.0816 19.8144-17.2544 18.5344-15.5136 17.408-13.8752C459.008 580.096 490.8544 563.2 512 563.2c27.3408 0 44.9024 11.9296 75.264 47.4112l13.8752 16.6912 19.6096 24.1664 10.2912 12.0832c3.1744 3.584 6.144 6.8608 8.8576 9.728l7.5264 7.3728c8.0896 7.424 13.7728 10.5472 18.176 10.5472 13.9264 0 21.1968-1.4848 32.4096-6.6048l7.3216-3.4816c22.4768-11.264 36.7104-15.5136 62.6688-15.5136 30.7712 0 69.632 24.832 119.9104 75.0592l18.2272 18.7392c6.8608 7.3216 13.9264 15.0016 21.1968 23.1424l16.0256-304.7424a115.2 115.2 0 0 0-109.056-121.088z m269.312-223.3856l-7.8336 0.8192-456.3456 64.1536A115.2 115.2 0 0 0 80.4352 296.448l0.8192 7.8336 42.752 304.2304c5.0176 35.6352 18.8416 62.5664 39.3216 78.9504l13.056-249.856a192 192 0 0 1 201.7792-181.7088l397.2096 20.8384-9.6256-68.608a115.2 115.2 0 0 0-122.2656-98.9184zM793.6 384a102.4 102.4 0 1 1 0 204.8 102.4 102.4 0 0 1 0-204.8z m0 51.2a51.2 51.2 0 1 0 0 102.4 51.2 51.2 0 0 0 0-102.4z" p-id="2418" fill="#ffffff"></path></svg>