<?xml version="1.0" standalone="no"?><!DOCTYPE svg PUBLIC "-//W3C//DTD SVG 1.1//EN" "http://www.w3.org/Graphics/SVG/1.1/DTD/svg11.dtd"><svg t="1626195691952" class="icon" viewBox="0 0 1024 1024" version="1.1" xmlns="http://www.w3.org/2000/svg" p-id="22929" width="200" height="200" xmlns:xlink="http://www.w3.org/1999/xlink"><defs><style type="text/css"></style></defs><path d="M503.145064 0c-97.427977 0-177.152 79.729942-177.152 177.163838 0 97.439815 79.718104 177.157919 177.157919 177.157919 97.427977 0 177.140162-79.718104 177.140162-177.157919S600.57304 0 503.145064 0z m-0.005919 318.890173c-77.942382 0-141.714497-63.778035-141.714498-141.726335 0-77.95422 63.772116-141.732254 141.714498-141.732254 77.95422 0 141.720416 63.783954 141.720416 141.732254 0 77.95422-63.772116 141.726335-141.720416 141.726335z m492.472971 350.782151h-102.743307l-163.928786-286.897573a21.308671 21.308671 0 0 0-18.503029-10.731283H316.854012a21.308671 21.308671 0 0 0-18.313619 10.405734l-170.948809 287.223122H28.387884S17.757225 674.845595 17.757225 687.388116c0 12.548439 10.630659 17.721711 10.630659 17.721711h70.857249v297.628855c0 12.548439 6.818775 21.261318 19.491514 21.261318h782.993018c12.666821 0 23.025202-10.263676 23.025202-22.806197v-296.083976h70.857249S1006.242775 699.930636 1006.242775 687.382197c0-8.357734-3.545526-14.264971-10.630659-17.715792zM336.096925 407.475052h355.108994a17.757225 17.757225 0 0 1 15.448786 8.996994l143.697387 253.200278H730.887399l-91.130081-160.199769c-6.043376-8.943723-12.60763-13.418543-19.698682-13.418543-7.085133 0-11.808555 4.723422-14.170266 14.176185l88.57304 159.442127H332.326474l89.330682-159.442127c0-9.452763-4.729341-14.176185-14.176185-14.176185s-16.531977 4.723422-21.255399 14.176185L296.658127 669.684162l-126.549826-0.011838 150.723329-253.513989a17.757225 17.757225 0 0 1 15.265295-8.683283z m-201.426127 566.887584v-269.258728h754.652485v269.258728a14.20578 14.20578 0 0 1-14.20578 14.20578H148.882497a14.20578 14.20578 0 0 1-14.20578-14.20578z" p-id="22930" fill="#ffffff"></path></svg>