<?xml version="1.0" standalone="no"?><!DOCTYPE svg PUBLIC "-//W3C//DTD SVG 1.1//EN" "http://www.w3.org/Graphics/SVG/1.1/DTD/svg11.dtd"><svg t="1626195287769" class="icon" viewBox="0 0 1024 1024" version="1.1" xmlns="http://www.w3.org/2000/svg" p-id="16789" xmlns:xlink="http://www.w3.org/1999/xlink" width="200" height="200"><defs><style type="text/css"></style></defs><path d="M512 33.92A478.08 478.08 0 1 0 990.08 512 478.72 478.72 0 0 0 512 33.92z m0 896A417.92 417.92 0 1 1 929.92 512 418.56 418.56 0 0 1 512 929.92z" p-id="16790" fill="#ffffff"></path><path d="M341.76 811.52v-22.4a378.24 378.24 0 0 1 16-111.36 313.6 313.6 0 0 1 42.24-88.32 157.44 157.44 0 0 1 124.16-74.24 156.8 156.8 0 0 1 124.16 74.24 296.96 296.96 0 0 1 42.24 88.32 378.24 378.24 0 0 1 13.44 111.36v22.4h45.44v-22.4c0-176.64-102.4-320-228.48-320s-228.48 143.36-228.48 320v22.4z" p-id="16791" fill="#ffffff"></path><path d="M753.92 499.84A91.52 91.52 0 0 0 704 332.16a105.6 105.6 0 0 0-20.48 0 159.36 159.36 0 0 0-316.16 0 81.28 81.28 0 0 0-21.76 0 91.52 91.52 0 0 0-51.2 167.68 192 192 0 0 0-86.4 172.8h28.8a215.68 215.68 0 0 1 9.6-64 162.56 162.56 0 0 1 24.96-50.56 94.08 94.08 0 0 1 74.24-42.88 82.56 82.56 0 0 1 47.36 16 202.88 202.88 0 0 1 20.48-19.2 102.4 102.4 0 0 0-18.56-12.16 87.68 87.68 0 0 0 24.32-24.32 160 160 0 0 0 104.96 39.68 156.8 156.8 0 0 0 103.68-39.68 97.28 97.28 0 0 0 24.32 24.32A115.84 115.84 0 0 0 633.6 512a156.8 156.8 0 0 1 21.76 19.84 79.36 79.36 0 0 1 48.64-16.64 94.08 94.08 0 0 1 74.24 42.88 177.92 177.92 0 0 1 24.96 50.56 215.68 215.68 0 0 1 9.6 64h28.16a192 192 0 0 0-87.04-172.8z m-409.6-13.44a64 64 0 0 1 0-128 55.68 55.68 0 0 1 20.48 3.84 160 160 0 0 0 33.92 88.96 64 64 0 0 1-54.4 35.2z m179.84-17.28a111.36 111.36 0 0 1-80.64-33.28 113.92 113.92 0 0 1-33.92-80.64 115.84 115.84 0 0 1 114.56-114.56 113.92 113.92 0 0 1 80.64 33.92A111.36 111.36 0 0 1 640 355.2a113.92 113.92 0 0 1-115.84 113.92zM704 486.4a64 64 0 0 1-54.4-32 158.08 158.08 0 0 0 34.56-89.6 51.84 51.84 0 0 1 19.84-3.84 64 64 0 1 1 0 128z" p-id="16792" fill="#ffffff"></path></svg>