<?xml version="1.0" standalone="no"?><!DOCTYPE svg PUBLIC "-//W3C//DTD SVG 1.1//EN" "http://www.w3.org/Graphics/SVG/1.1/DTD/svg11.dtd"><svg t="1626196000793" class="icon" viewBox="0 0 1024 1024" version="1.1" xmlns="http://www.w3.org/2000/svg" p-id="27732" xmlns:xlink="http://www.w3.org/1999/xlink" width="250" height="250"><defs><style type="text/css"></style></defs><path d="M902.520251 415.56567c-10.501168 0-18.998703 8.371668-18.998703 18.696828l0 398.967644c0 38.433334-34.608216 69.64622-74.612325 69.64622l-621.297288 0.065492c-39.697117 0-71.991638-31.279401-71.991638-69.711711l0.194428-642.177851c0-38.273698 33.060977-75.211982 72.938196-75.211982L602.339518 115.840308c10.480702 0 18.964934-8.335852 18.964934-18.61394 0-10.280134-8.484232-18.611893-18.964934-18.611893L188.752922 78.614475c-60.786435 0-110.400413 53.634548-110.400413 112.438838l-0.440022 642.177851c0 59.066257 49.214888 107.10332 109.699448 107.10332l623.363344 0c60.94914 0 110.544699-48.037063 110.544699-107.10332L921.519977 434.262498C921.519977 423.937338 913.021419 415.56567 902.520251 415.56567zM952.087157 110.416785l-44.194548-44.234457c-16.559141-16.622586-37.97387-25.068955-58.560744-25.068955-17.896602 0-35.165918 6.378268-48.093345 19.314904L352.21483 528.758686l-48.370661 177.224354c-2.131547 7.695263 0.093121 15.859199 5.65172 21.60404 4.231371 4.163833 9.858532 6.459109 15.643282 6.459109 1.950422 0 3.919263-0.25992 5.854335-0.798179l176.234817-48.131207 450.599581-467.956901C985.626018 189.339276 983.123011 141.388171 952.087157 110.416785zM347.580277 689.460738l31.967062-117.127627 86.887906 84.666308L347.580277 689.460738zM931.123706 190.326766 500.745678 637.57809l-103.235223-100.599186 430.484452-449.76968c6.792707-6.797823 15.350616-8.223289 21.335934-8.223289 11.360745 0 22.939455 5.078669 31.800263 13.974269l44.23855 44.275389c8.836249 8.818853 13.910824 20.393469 13.920034 31.758308C939.291736 174.99457 937.871387 183.573969 931.123706 190.326766z" p-id="27733" fill="#ffffff"></path></svg>